<svg xmlns="http://www.w3.org/2000/svg" xmlns:xlink="http://www.w3.org/1999/xlink" viewBox="0 0 76 56" fill="#fff" fill-rule="evenodd" stroke="none" stroke-linecap="round" stroke-linejoin="round"><style><![CDATA[.B{fill-rule:nonzero}.C{stroke-width:.067}.D{stroke:none}.E{fill:#3b3795}.F{stroke-linejoin:bevel}]]></style><use xlink:href="#A" x=".5" y=".5"/><symbol id="A" overflow="visible"><g stroke-linejoin="miter" class="D"><g fill="#bcbec0" class="B C"><path d="M0 13.174h54.797v40.223H0z"/><path d="M0 13.174L19.761 0H74.56L54.797 13.174z"/><path d="M54.797 53.258V13.035L74.7.28l-.14 39.802z"/></g><path d="M7.148 39.383H28.03v14.154H7.148zm53.258 10.091l-.423-12.475 8.97-5.044.281 11.352zm-16.4-7.85h5.887v5.046h-5.887zm-8.127 0h5.886v5.046h-5.886z" class="B C"/><path d="M21.302 2.055L8.409 10.463l45.409-.56L65.03 1.494zm35.318 12.333v5.606L72.878 8.782l-.562-4.484zm0 7.848v5.607l16.258-11.211-.562-4.486zm.56 6.727v5.607l16.258-11.213-.56-4.485zM2.802 15.508l-.56 5.607 49.333-.56v-5.047zm0 7.85l-.56 5.605 49.333-.56v-5.045zm1.122 8.408l-.561 5.607 49.334-.562v-5.045z" stroke-width=".009" class="B"/></g><g stroke="none"><path d="M25.307 32.693c0 1.452-1.175 2.625-2.625 2.625H11.286c-.696.001-1.365-.276-1.857-.768s-.769-1.16-.768-1.857V21.295c0-1.444 1.174-2.62 2.625-2.62h11.395c1.45 0 2.625 1.177 2.625 2.62v11.398z" fill="#0054a6" class="B"/><path d="M17.998 26.696c1.905 0 1.905-1.362 1.905-1.907 0-1.19-.666-1.684-2.248-1.684h-2.023v3.591h2.367zm-2.367 6.514h-2.55V20.997h5.578c2.366 0 3.794 1.514 3.794 3.912 0 1.105-.612 3.894-3.894 3.894h-2.927v4.409z" class="B"/><use xlink:href="#C" class="B E"/></g><use xlink:href="#C" fill="none" class="C D F"/><g stroke="none" class="B"><path d="M9.853 52.659c.193 1.078-.477 2.114-1.499 2.298-1.016.183-2.012-.553-2.206-1.632-.195-1.085.483-2.116 1.499-2.3 1.023-.184 2.011.55 2.206 1.633z" class="E"/><path d="M8.957 52.86c.098.548-.24 1.064-.76 1.159s-1.016-.275-1.115-.822.239-1.069.759-1.162 1.017.276 1.116.825z"/><path d="M21.968 50.418c.195 1.082-.482 2.115-1.499 2.298s-2.011-.548-2.206-1.633.478-2.115 1.499-2.298 2.012.548 2.208 1.633z" class="E"/><path d="M21.066 50.619c.098.548-.239 1.067-.759 1.162-.513.091-1.012-.278-1.11-.825s.24-1.064.753-1.155c.52-.096 1.017.275 1.116.817z"/><use xlink:href="#D"/></g><use xlink:href="#D" fill="none" class="C D F"/><use xlink:href="#E" stroke="none" class="B"/><use xlink:href="#E" fill="none" class="C D F"/></symbol><defs ><path id="C" d="M17.931 51.184l-7.721 1.388-.124-.457-.188-.402-.176-.267-.255-.287-.265-.238-.262-.163-.38-.135-.33-.052-.453.012-.372.067-.325.109-.235.118-.291.227-.292.321-.215.294-.145.297-.123.359-.045.369.016.377.041.226-1.242.224-.191.018-.134-.04-.086-.055-.055-.112-.029-.131-.683-3.793-.008-.143.026-.117.079-.108.098-.072.111-.036 1.497-.269.128-.063.124-.093.067-.084 2.179-3.182.136-.121.122-.067.117-.039 6.143-1.103 3.588 2.275 4.747.003.149.031.058.025.075.091.033.112.613 3.415.007.075-.016.072-.06.09-.085.072-.151.04-.807.145-.096-.427-.149-.377-.176-.311-.339-.388-.329-.232-.332-.197-.348-.088-.306-.051-.367-.003-.42.063-.318.115-.356.193-.318.272-.248.308-.172.341-.131.373-.052.324-.024.326.027.309.046.226z"/><path id="D" d="M11.604 47.417l-.462-2.57-2.564.462-.174.072-.149.143-.079.148-.651 2.505.02-.02 4.043-.726.015-.015z"/><path id="E" d="M11.531 44.772l.461 2.562 5.213-.935-3.116-2.087-2.559.46z"/></defs></svg>